<?xml version="1.0" encoding="UTF-8"?>
<svg id="Layer_2" data-name="Layer 2" xmlns="http://www.w3.org/2000/svg" xmlns:xlink="http://www.w3.org/1999/xlink" viewBox="0 0 1006.58 214.51">
  <defs>
    <style>
      .cls-1 {
        fill: url(#linear-gradient-2);
      }

      .cls-2 {
        fill: #1896af;
      }

      .cls-3 {
        fill: url(#linear-gradient-4);
      }

      .cls-4 {
        fill: url(#linear-gradient-3);
      }

      .cls-5 {
        fill: url(#linear-gradient-5);
      }

      .cls-6 {
        fill: url(#linear-gradient-8);
      }

      .cls-7 {
        fill: url(#linear-gradient-7);
      }

      .cls-8 {
        fill: url(#linear-gradient-6);
      }

      .cls-9 {
        fill: #929395;
      }

      .cls-10 {
        fill: url(#linear-gradient);
      }
    </style>
    <linearGradient id="linear-gradient" x1="64.86" y1="437.52" x2="208.1" y2="375.35" gradientTransform="translate(7 458.89) scale(.99 -.99)" gradientUnits="userSpaceOnUse">
      <stop offset="0" stop-color="#e85811"/>
      <stop offset="1" stop-color="#891e14"/>
    </linearGradient>
    <linearGradient id="linear-gradient-2" x1="238.69" y1="407.22" x2="72.01" y2="466.99" gradientTransform="translate(7 458.89) scale(.99 -.99)" gradientUnits="userSpaceOnUse">
      <stop offset="0" stop-color="#ec7007"/>
      <stop offset="1" stop-color="#a82217"/>
    </linearGradient>
    <linearGradient id="linear-gradient-3" x1="-40.11" y1="384.61" x2="110.88" y2="262.98" gradientTransform="translate(0 464.84) scale(1 -1)" gradientUnits="userSpaceOnUse">
      <stop offset="0" stop-color="#bbb199"/>
      <stop offset="1" stop-color="#583c14"/>
    </linearGradient>
    <linearGradient id="linear-gradient-4" x1="2888.69" y1="-1407.04" x2="2679.34" y2="-1320.51" gradientTransform="translate(2886.49 1572.26) rotate(-180) scale(1 -1)" gradientUnits="userSpaceOnUse">
      <stop offset="0" stop-color="#bbb199"/>
      <stop offset="1" stop-color="#75591c"/>
    </linearGradient>
    <linearGradient id="linear-gradient-5" x1="200.88" y1="314.65" x2="136.27" y2="326.28" gradientTransform="translate(0 464.84) scale(1 -1)" gradientUnits="userSpaceOnUse">
      <stop offset="0" stop-color="#24653a"/>
      <stop offset=".18" stop-color="#36783a"/>
      <stop offset=".51" stop-color="#529739"/>
      <stop offset=".8" stop-color="#63a939"/>
      <stop offset="1" stop-color="#69b039"/>
    </linearGradient>
    <linearGradient id="linear-gradient-6" x1="191.34" y1="336.93" x2="122.05" y2="267.64" gradientTransform="translate(0 464.84) scale(1 -1)" gradientUnits="userSpaceOnUse">
      <stop offset="0" stop-color="#32513c"/>
      <stop offset="1" stop-color="#7ab41e"/>
    </linearGradient>
    <linearGradient id="linear-gradient-7" x1=".04" y1="412.34" x2="52.48" y2="411.29" gradientTransform="translate(0 464.84) scale(1 -1)" gradientUnits="userSpaceOnUse">
      <stop offset="0" stop-color="#1ab8db"/>
      <stop offset="1" stop-color="#005c6d"/>
    </linearGradient>
    <linearGradient id="linear-gradient-8" x1="46.86" y1="411.6" x2="94.05" y2="409.52" xlink:href="#linear-gradient-7"/>
  </defs>
  <g id="Layer_1-2" data-name="Layer 1">
    <g id="Layer_2-2" data-name="Layer 2">
      <g id="Layer_1-2" data-name="Layer 1-2">
        <polygon class="cls-10" points="213.63 145.98 67.78 .15 147.96 .63 213.65 66.32 213.63 145.98"/>
        <polygon class="cls-1" points="68.6 .29 148.76 .78 214.43 66.45 68.6 .29"/>
        <polygon class="cls-4" points="1.03 66.81 147.35 213.1 66.7 212.83 .8 146.95 1.03 66.81"/>
        <polygon class="cls-3" points="146.53 212.97 65.9 212.7 0 146.8 146.53 212.97"/>
        <polygon class="cls-5" points="213.48 146.13 173.09 105.76 106.27 172.59 213.48 146.13"/>
        <polygon class="cls-8" points="146.65 212.97 213.48 146.13 106.27 172.59 146.65 212.97"/>
        <polygon class="cls-7" points="41.86 107.19 1.47 66.81 68.3 0 41.86 107.19"/>
        <polygon class="cls-6" points="108.67 40.39 41.86 107.19 68.3 0 108.67 40.39"/>
        <path class="cls-2" d="M245.33.29h58.1v23.03h-31.9v15.95h30.93v23.03h-30.93v17.61h31.9v22.94h-58.11V.29Z"/>
        <path class="cls-2" d="M334.37,23.32h-20.14V.29h66.57v23.03h-20.23v79.53h-26.21V23.32Z"/>
        <path class="cls-2" d="M394.68.29h58.13v23.03h-31.9v15.95h30.93v23.03h-30.93v17.61h31.9v22.94h-58.13V.29Z"/>
        <path class="cls-2" d="M471.39.29h33.56c16.1,0,26.08,2.93,31.77,7.35,8.6,6.66,12.47,16.85,12.47,28.02.12,6.56-1.66,13.01-5.12,18.58-3.24,4.91-7.88,8.72-13.31,10.96l21.22,37.65h-27.07l-26.76-49.43h4.21c6.68,0,12.35-.55,15.82-2.78,3.86-3.03,6.04-7.73,5.84-12.64.14-4.76-2.17-9.25-6.11-11.92-3.26-1.84-6.94-2.8-10.68-2.78h-9.71v79.55h-26.12V.29Z"/>
        <path class="cls-2" d="M627.42,62.82l-.57-62.53h25.11v102.56h-22.75l-39.25-61.77.57,61.77h-25.11V.29h22.69l39.31,62.53Z"/>
        <path class="cls-2" d="M694.54,102.85h-28.48L706.74.29h22.52l39.48,102.56h-28.72l-4.87-14.75h-35.82l-4.8,14.75ZM716.85,31.43l-11.08,35.82h22.61l-11.52-35.82Z"/>
        <path class="cls-2" d="M783.43.29h26.21v79.62h30.38v22.94h-56.59V.29Z"/>
        <path class="cls-9" d="M259.74,212.55h-14.41v-98.7h28.55c23.62,0,34.83,12.26,34.83,29.87s-11.21,29.9-34.83,29.9h-14.14v38.93ZM259.74,160.41h14.14c16.41,0,20.41-9.35,20.41-16.69s-4-16.66-20.41-16.66h-14.14v33.35Z"/>
        <path class="cls-9" d="M372.2,212.55l-10.93-29.07h-35.5l-10.93,29.07h-15.21l37.48-98.7h12.94l37.5,98.7h-15.34ZM356.36,170.27l-12.64-37.75h-.27l-12.64,37.75h25.56Z"/>
        <path class="cls-9" d="M467.71,139.05c-2.93-3.33-11.73-13.86-27.75-13.86-20.47.21-36.89,16.96-36.68,37.43,0,.11,0,.22,0,.32,0,21.22,17.09,38.28,36.43,38.28,10.46-.21,20.3-4.98,26.95-13.06h17.74c-8.98,16.35-26.18,26.46-44.83,26.36-28,0-50.69-23.62-50.69-51.62-.15-27.92,22.36-50.68,50.29-50.84.18,0,.37,0,.55,0,10.8.04,21.32,3.39,30.15,9.61,6.36,4.56,11.57,10.54,15.21,17.47l-17.36-.08Z"/>
        <path class="cls-9" d="M552.29,212.55l-37.48-49.74h-.27v49.74h-14.41v-98.7h14.41v48.96h.27l37.48-48.96h17.74l-38.55,48.96,38.55,49.74h-17.74Z"/>
        <path class="cls-9" d="M644.99,212.55l-10.96-29.07h-35.58l-10.93,29.07h-15.21l37.48-98.7h12.94l37.5,98.7h-15.23ZM629,170.27l-12.64-37.75h-.27l-12.64,37.75h25.56Z"/>
        <path class="cls-9" d="M739.46,138.67c-4.21-4.55-12.41-13.48-26.95-13.48-20.54,0-36.55,17.61-36.55,38.28-.04,20.45,16.23,37.2,36.68,37.75,2.8,0,24.54-.25,34.02-24.54h-46.03v-13.21h62.44c-.53,33.1-26.95,51.05-50.96,51.05-27.92,0-50.56-22.64-50.56-50.56,0-.13,0-.27,0-.4,0-28.4,22.02-51.49,50.44-51.49,18.52.12,35.5,10.36,44.24,26.69l-16.77-.08Z"/>
        <path class="cls-9" d="M777.34,212.55v-98.7h14.41v98.7h-14.41Z"/>
        <path class="cls-9" d="M875.14,212.55l-48.84-76.29h-.27v76.29h-14.39v-98.7h15.74l48.01,75.11h.27v-75.11h14.41v98.7h-14.94Z"/>
        <path class="cls-9" d="M983.04,138.67c-4.21-4.55-12.39-13.48-26.95-13.48-20.54,0-36.55,17.61-36.55,38.28-.04,20.46,16.25,37.22,36.7,37.75,2.8,0,24.54-.25,34-24.54h-46.1v-13.21h62.42c-.44,33.1-26.86,51.05-50.88,51.05-27.92,0-50.56-22.64-50.56-50.56,0-.13,0-.27,0-.4,0-28.4,21.99-51.49,50.42-51.49,18.52.12,35.5,10.36,44.24,26.69l-16.75-.08Z"/>
      </g>
    </g>
  </g>
</svg>